<?xml version="1.0" encoding="utf-8" standalone="yes"?>
<!DOCTYPE svg PUBLIC "-//W3C//DTD SVG 1.1//EN" "http://www.w3.org/Graphics/SVG/1.1/DTD/svg11.dtd">
<svg width="770" height="746" viewBox="0 0 770 746" style="fill:none;stroke:none;fill-rule:evenodd;clip-rule:evenodd;stroke-linecap:round;stroke-linejoin:round;stroke-miterlimit:1.5;" version="1.1" xmlns="http://www.w3.org/2000/svg" xmlns:xlink="http://www.w3.org/1999/xlink"><style class="text-font-style fontImports" data-font-family="Roboto">@import url('https://fonts.googleapis.com/css2?family=Roboto:wght@400;700&amp;display=block');</style><g id="items" style="isolation: isolate"><g id="blend" style="mix-blend-mode: normal"><g id="g-root-4.g-4_fr_4pg6vi1ud0t8g-fill" data-item-order="-466550" transform="translate(350, 99)"><g id="4.g-4_fr_4pg6vi1ud0t8g-fill" stroke="none" fill="#fff2e5"><g><path d="M 10 10C 48.0703 10 85.0648 22.6306 115.186 45.9124C 144.964 68.9285 166.361 101.0684 176.115 137.393L 176.153 137.383C 181.695 157.215 193.574 174.69 209.978 187.139C 226.115 199.385 245.76 206.106 266 206.32L 266 189.236C 266 188.181 267.423 187.845 267.894 188.789L 301.776 244.553C 301.917 244.834 301.917 245.166 301.776 245.447L 267.894 301.211C 267.423 302.155 266 301.819 266 300.764L 266 283.997C 228.803 283.78 192.667 271.51 163.022 249.012C 133.111 226.313 111.449 194.449 101.3447 158.285C 96.0831 138.081 84.2039 120.136 67.685 107.3685C 51.1662 94.6005 30.8781 87.6738 10 87.6738L 10 10Z"></path></g></g></g><g id="g-root-3.g-3_fr_1uux8lq1ud0tu2-fill" data-item-order="-466546" transform="translate(178, 99)"><g id="3.g-3_fr_1uux8lq1ud0tu2-fill" stroke="none" fill="#fffbda"><g><path d="M 10 182C 10.000004 136.383 28.1214 92.6339 60.3776 60.3776C 92.6339 28.1214 136.383 9.999999 182 10L 182 87.6738C 156.983 87.6738 132.991 97.6117 115.301 115.301C 97.6117 132.991 87.6738 156.983 87.6738 182L 10 182Z"></path></g></g></g><g id="g-root-2.g-2_fr_1q5qm6m1ud2610-fill" data-item-order="-466542" transform="translate(178, 271)"><g id="2.g-2_fr_1q5qm6m1ud2610-fill" stroke="none" fill="#f4ffdc"><g><path d="M 182 182C 159.413 182 137.046 177.551 116.178 168.907C 95.3104 160.263 76.3493 147.594 60.3776 131.622C 44.4059 115.651 31.7365 96.6896 23.0927 75.8216C 14.4489 54.9536 9.999998 32.5874 10 10L 87.6738 10.000007C 87.6738 22.3871 90.1136 34.6529 94.854 46.0971C 99.5943 57.5413 106.5423 67.9397 115.301 76.6987C 124.06 85.4577 134.459 92.4057 145.903 97.1461C 157.347 101.8864 169.613 104.3262 182 104.3262L 182 182Z"></path></g></g></g><g id="g-root-1.g-1_fr_1ha3lxq1ud26tq-fill" data-item-order="-466538" transform="translate(350.00201416015625, 247.28466796875)"><g id="1.g-1_fr_1ha3lxq1ud26tq-fill" stroke="none" fill="#e3fff2"><g><path d="M 101.3428 9.999961C 104.9806 23.9485 105.3015 38.4555 102.4186 52.5794C 99.5356 66.7033 93.4539 79.9785 84.6405 91.3855C 75.8271 102.7925 64.5165 112.028 51.5775 118.382C 38.6384 124.736 24.4151 128.04 10 128.041L 10.0016 205.715C 36.287 205.714 62.2226 199.689 85.8164 188.102C 109.4103 176.516 130.035 159.675 146.105 138.875C 154.506 128.003 161.545 116.2 167.102 103.7312C 165.728 102.751 164.367 101.7496 163.02 100.727C 133.109 78.0275 111.447 46.1641 101.3428 9.999961Z"></path></g></g></g><g id="g-root-tx_holistic_18eglou1ud28e8-fill" data-item-order="0" transform="translate(225, 39)"><g id="tx_holistic_18eglou1ud28e8-fill" stroke="none" fill="#484848"><g><text style="font: 20px Roboto, sans-serif; white-space: pre;" font-size="20px" font-family="Roboto, sans-serif"><tspan x="13.59" y="34" dominant-baseline="ideographic">Holistic Child Development Cycle</tspan></text></g></g></g><g id="g-root-moni_8vwu6m1ud3ksv-fill" data-item-order="0" transform="translate(230, 154)"></g><g id="g-root-targ_zmkfym1ud277p-fill" data-item-order="0" transform="translate(457, 219)"></g><g id="g-root-pape_1d3m6721q6yi2s-fill" data-item-order="0" transform="translate(230, 339)"></g><g id="g-root-grow_mdkv6m1q6yhhl-fill" data-item-order="0" transform="translate(421, 339)"></g><g id="g-root-tx_1_4hc0r21ud26tf-fill" data-item-order="0" transform="translate(99, 483)"><g id="tx_1_4hc0r21ud26tf-fill" stroke="none" fill="#3cc583"><g><text style="font: bold 30px Roboto, sans-serif; white-space: pre;" font-weight="bold" font-size="30px" font-family="Roboto, sans-serif"><tspan x="13.39" y="46" dominant-baseline="ideographic">1</tspan></text></g></g></g><g id="g-root-tx_2_140iitq1ud27f2-fill" data-item-order="0" transform="translate(267, 483)"><g id="tx_2_140iitq1ud27f2-fill" stroke="none" fill="#92bd39"><g><text style="font: bold 30px Roboto, sans-serif; white-space: pre;" font-weight="bold" font-size="30px" font-family="Roboto, sans-serif"><tspan x="13.39" y="46" dominant-baseline="ideographic">2</tspan></text></g></g></g><g id="g-root-tx_3_8yeh1q1ud287d-fill" data-item-order="0" transform="translate(435, 483)"><g id="tx_3_8yeh1q1ud287d-fill" stroke="none" fill="#e0cb15"><g><text style="font: bold 30px Roboto, sans-serif; white-space: pre;" font-weight="bold" font-size="30px" font-family="Roboto, sans-serif"><tspan x="13.39" y="46" dominant-baseline="ideographic">3</tspan></text></g></g></g><g id="g-root-tx_4_142dy321ud26fg-fill" data-item-order="0" transform="translate(603, 483)"><g id="tx_4_142dy321ud26fg-fill" stroke="none" fill="#de8431"><g><text style="font: bold 30px Roboto, sans-serif; white-space: pre;" font-weight="bold" font-size="30px" font-family="Roboto, sans-serif"><tspan x="13.39" y="46" dominant-baseline="ideographic">4</tspan></text></g></g></g><g id="g-root-tx_establis_m7zk5q1ud27m1-fill" data-item-order="0" transform="translate(51, 543)"><g id="tx_establis_m7zk5q1ud27m1-fill" stroke="none" fill="#3cc583"><g><text style="font: bold 20px Roboto, sans-serif; white-space: pre;" font-weight="bold" font-size="20px" font-family="Roboto, sans-serif"><tspan x="12" y="34" dominant-baseline="ideographic">Establish </tspan><tspan x="12" y="58" dominant-baseline="ideographic">Health </tspan><tspan x="12" y="82" dominant-baseline="ideographic">Foundations</tspan></text></g></g></g><g id="g-root-tx_cultivat_1q6zkcu1ud2878-fill" data-item-order="0" transform="translate(219, 543)"><g id="tx_cultivat_1q6zkcu1ud2878-fill" stroke="none" fill="#92bd39"><g><text style="font: bold 20px Roboto, sans-serif; white-space: pre;" font-weight="bold" font-size="20px" font-family="Roboto, sans-serif"><tspan x="12" y="34" dominant-baseline="ideographic">Cultivate </tspan><tspan x="12" y="58" dominant-baseline="ideographic">Responsible </tspan><tspan x="12" y="82" dominant-baseline="ideographic">Habits</tspan></text></g></g></g><g id="g-root-tx_fostergr_qp20ge1ud28zz-fill" data-item-order="0" transform="translate(387, 543)"><g id="tx_fostergr_qp20ge1ud28zz-fill" stroke="none" fill="#e0cb15"><g><text style="font: bold 20px Roboto, sans-serif; white-space: pre;" font-weight="bold" font-size="20px" font-family="Roboto, sans-serif"><tspan x="12" y="34" dominant-baseline="ideographic">Foster Growth </tspan><tspan x="12" y="58" dominant-baseline="ideographic">Habits</tspan></text></g></g></g><g id="g-root-tx_develops_1uoohqm1ud26fe-fill" data-item-order="0" transform="translate(555, 543)"><g id="tx_develops_1uoohqm1ud26fe-fill" stroke="none" fill="#de8431"><g><text style="font: bold 20px Roboto, sans-serif; white-space: pre;" font-weight="bold" font-size="20px" font-family="Roboto, sans-serif"><tspan x="12" y="34" dominant-baseline="ideographic">Develop </tspan><tspan x="12" y="58" dominant-baseline="ideographic">Specialization</tspan></text></g></g></g><g id="g-root-tx_empowers_m9uzf21ud26mg-fill" data-item-order="0" transform="translate(381, 603)"><g id="tx_empowers_m9uzf21ud26mg-fill" stroke="none" fill="#484848"><g><text style="font: 15px Roboto, sans-serif; white-space: pre;" font-size="15px" font-family="Roboto, sans-serif"><tspan x="12" y="31" dominant-baseline="ideographic">Empowers self-</tspan><tspan x="12" y="49" dominant-baseline="ideographic">directed learning and </tspan><tspan x="12" y="67" dominant-baseline="ideographic">adaptation</tspan></text></g></g></g><g id="g-root-tx_equipswi_1q8uzm61ud277n-fill" data-item-order="0" transform="translate(549, 603)"><g id="tx_equipswi_1q8uzm61ud277n-fill" stroke="none" fill="#484848"><g><text style="font: 15px Roboto, sans-serif; white-space: pre;" font-size="15px" font-family="Roboto, sans-serif"><tspan x="12" y="28" dominant-baseline="ideographic">Equips with skills for </tspan><tspan x="12" y="46" dominant-baseline="ideographic">future success</tspan></text></g></g></g><g id="g-root-tx_ensuresp_8x5ivi1ud2616-fill" data-item-order="0" transform="translate(51, 627)"><g id="tx_ensuresp_8x5ivi1ud2616-fill" stroke="none" fill="#484848"><g><text style="font: 15px Roboto, sans-serif; white-space: pre;" font-size="15px" font-family="Roboto, sans-serif"><tspan x="12" y="28" dominant-baseline="ideographic">Ensures physical </tspan><tspan x="12" y="46" dominant-baseline="ideographic">growth and stability</tspan></text></g></g></g><g id="g-root-tx_develops_1hbck3y1ud28zx-fill" data-item-order="0" transform="translate(219, 627)"><g id="tx_develops_1hbck3y1ud28zx-fill" stroke="none" fill="#484848"><g><text style="font: 15px Roboto, sans-serif; white-space: pre;" font-size="15px" font-family="Roboto, sans-serif"><tspan x="12" y="31" dominant-baseline="ideographic">Develops ethical </tspan><tspan x="12" y="49" dominant-baseline="ideographic">behavior and </tspan><tspan x="12" y="67" dominant-baseline="ideographic">responsibility</tspan></text></g></g></g><g id="g-root-4.g-4_fr_4pg6vi1ud0t8g-stroke" data-item-order="-466550" transform="translate(350, 99)"><g id="4.g-4_fr_4pg6vi1ud0t8g-stroke" fill="none" stroke-linecap="round" stroke-linejoin="round" stroke-miterlimit="4" stroke="#de8431" stroke-width="2"><g><path d="M 10 10C 48.0703 10 85.0648 22.6306 115.1863 45.9124C 144.9641 68.9285 166.3611 101.0684 176.1152 137.3935L 176.1533 137.3828C 181.6947 157.2155 193.5739 174.69 209.9775 187.1385C 226.1154 199.3855 245.76 206.106 266 206.3204L 266 189.2361C 266 188.1808 267.4225 187.845 267.8944 188.7888L 301.7764 244.5528C 301.9172 244.8343 301.9172 245.1657 301.7764 245.4472L 267.8944 301.2112C 267.4225 302.155 266 301.8192 266 300.7639L 266 283.9966C 228.8028 283.7805 192.6675 271.5103 163.0218 249.0125C 133.1106 226.313 111.4493 194.449 101.3447 158.2849C 96.0831 138.0808 84.2039 120.1364 67.685 107.3685C 51.1662 94.6005 30.8781 87.6738 10 87.6738L 10 10Z"></path></g></g></g><g id="g-root-3.g-3_fr_1uux8lq1ud0tu2-stroke" data-item-order="-466546" transform="translate(178, 99)"><g id="3.g-3_fr_1uux8lq1ud0tu2-stroke" fill="none" stroke-linecap="round" stroke-linejoin="round" stroke-miterlimit="4" stroke="#e0cb15" stroke-width="2"><g><path d="M 10 182C 10 136.3828 28.1214 92.6339 60.3776 60.3776C 92.6339 28.1214 136.3828 9.999999 182 10L 182 87.6738C 156.9831 87.6738 132.9909 97.6117 115.3013 115.3013C 97.6117 132.9909 87.6738 156.9831 87.6738 182L 10 182Z"></path></g></g></g><g id="g-root-2.g-2_fr_1q5qm6m1ud2610-stroke" data-item-order="-466542" transform="translate(178, 271)"><g id="2.g-2_fr_1q5qm6m1ud2610-stroke" fill="none" stroke-linecap="round" stroke-linejoin="round" stroke-miterlimit="4" stroke="#92bd39" stroke-width="2"><g><path d="M 182 182C 159.4126 182 137.0464 177.5511 116.1784 168.9073C 95.3104 160.2635 76.3493 147.5941 60.3776 131.6224C 44.4059 115.6507 31.7365 96.6896 23.0927 75.8216C 14.4489 54.9536 10 32.5874 10 10L 87.6738 10C 87.6738 22.3871 90.1136 34.6529 94.854 46.0971C 99.5943 57.5413 106.5423 67.9397 115.3013 76.6987C 124.0603 85.4577 134.4587 92.4057 145.9029 97.1461C 157.3471 101.8864 169.6129 104.3262 182 104.3262L 182 182Z"></path></g></g></g><g id="g-root-1.g-1_fr_1ha3lxq1ud26tq-stroke" data-item-order="-466538" transform="translate(350.00201416015625, 247.28466796875)"><g id="1.g-1_fr_1ha3lxq1ud26tq-stroke" fill="none" stroke-linecap="round" stroke-linejoin="round" stroke-miterlimit="4" stroke="#3cc583" stroke-width="2"><g><path d="M 101.3428 10C 104.9806 23.9485 105.3015 38.4555 102.4186 52.5794C 99.5356 66.7033 93.4539 79.9785 84.6405 91.3855C 75.8271 102.7925 64.5165 112.0278 51.5775 118.3821C 38.6384 124.7363 24.4151 128.0405 10 128.0408L 10.0016 205.7146C 36.287 205.7141 62.2226 199.6891 85.8164 188.1023C 109.4103 176.5156 130.0346 159.6755 146.1055 138.8753C 154.5058 128.0029 161.5452 116.1997 167.1021 103.7312C 165.7283 102.7511 164.3674 101.7496 163.0199 100.727C 133.1087 78.0276 111.4473 46.1641 101.3428 10Z"></path></g></g></g><g id="g-root-tx_holistic_18eglou1ud28e8-stroke" data-item-order="0" transform="translate(225, 39)"></g><g id="g-root-moni_8vwu6m1ud3ksv-stroke" data-item-order="0" transform="translate(230, 154)"><g id="moni_8vwu6m1ud3ksv-stroke" fill="none" stroke-linecap="round" stroke-linejoin="round" stroke-miterlimit="4" stroke="#e0cb15" stroke-width="2"><g><path d="M 56.5 27.5C 56.5 28.700001 55.700001 29.5 54.5 29.5L 36.5 29.5C 35.299999 29.5 34.5 28.700001 34.5 27.5L 34.5 13.5C 34.5 12.3 35.299999 11.5 36.5 11.5L 54.5 11.5C 55.700001 11.5 56.5 12.3 56.5 13.5L 56.5 27.5ZM 45.5 29.5L 45.5 35.5M 41.5 35.5L 49.5 35.5M 10 10M 40.200001 23.5L 42.799999 18.9L 47.799999 22.9L 50.799999 17.5M 43.400002 54.400002L 39 50L 43.400002 45.599998M 51 44C 51 47.400002 48.400002 50 45 50L 39 50M 10 10M 22.39996 13.59998L 26.99996 17.999981L 22.39996 22.399979M 14.99994 24C 14.99994 20.6 17.599939 18 20.999939 18L 26.999941 18M 20.8999 48.099998C 24.7659 48.099998 27.8999 44.966 27.8999 41.099998C 27.8999 37.234001 24.7659 34.099998 20.8999 34.099998C 17.03392 34.099998 13.8999 37.234001 13.8999 41.099998C 13.8999 44.966 17.03392 48.099998 20.8999 48.099998ZM 27.8999 40.900002C 26.6999 41.299999 25.499901 41.5 24.2999 41.5C 20.6999 41.5 17.2999 39.900002 14.8999 37.5M 30.299999 56.5C 28.9 52.700001 25.299999 50.099998 20.9 50.099998C 16.5 50.099998 12.9 52.900002 11.5 56.5"></path></g></g></g><g id="g-root-targ_zmkfym1ud277p-stroke" data-item-order="0" transform="translate(457, 219)"><g id="targ_zmkfym1ud277p-stroke" fill="none" stroke-linecap="round" stroke-linejoin="round" stroke-miterlimit="4" stroke="#de8431" stroke-width="2"><g><path d="M 13.644 18.028C 13.642836 21.91028 16.789719 25.058107 20.671999 25.058107C 24.554279 25.058107 27.701164 21.91028 27.699999 18.028C 27.701164 14.14572 24.554279 10.997891 20.671999 10.997891C 16.789719 10.997891 13.642836 14.14572 13.644 18.028M 24.962 28.705999C 22.19043 27.192316 18.826122 27.252041 16.110025 28.863146C 13.393929 30.474251 11.728483 33.398018 11.728 36.556L 11.728 44.222L 15.774 44.222L 16.84 57L 24.506001 57M 47.200001 39.984001C 48.598122 45.418388 46.172527 51.114399 41.285744 53.872417C 36.398956 56.630432 30.269064 55.762993 26.339403 51.757362C 22.40974 47.751728 21.659821 41.60635 24.510895 36.773266C 27.361967 31.94018 33.103374 29.624084 38.509998 31.125999M 41.379997 43.096001C 41.379997 46.526791 38.598793 49.307999 35.167999 49.307999C 31.737207 49.307999 28.955999 46.526791 28.955999 43.096001C 28.955999 39.665207 31.737207 36.883999 35.167999 36.883999M 44.130001 33.912003L 35.503998 43.096001M 49.945999 27.804001L 49.939999 21.114L 43.830002 26.736L 44.130001 33.912003M 49.945999 27.804001L 56.271999 27.804001L 50.650002 33.912003L 44.130001 33.912003"></path></g></g></g><g id="g-root-pape_1d3m6721q6yi2s-stroke" data-item-order="0" transform="translate(230, 339)"><g id="pape_1d3m6721q6yi2s-stroke" fill="none" stroke-linecap="round" stroke-linejoin="round" stroke-miterlimit="4" stroke="#92bd39" stroke-width="2"><g><path d="M 12 16.5C 12 19.261425 14.238577 21.5 17 21.5C 19.761425 21.5 22 19.261425 22 16.5C 22 13.738577 19.761425 11.5 17 11.5C 14.238577 11.5 12 13.738577 12 16.5ZM 46 16.5C 46 19.261425 48.238575 21.5 51 21.5C 53.761425 21.5 56 19.261425 56 16.5C 56 13.738577 53.761425 11.5 51 11.5C 48.238575 11.5 46 13.738577 46 16.5ZM 15.024 56.5C 13.367146 56.5 12.024 55.156857 12.024 53.5L 12.024 27.5C 12.024035 26.328518 12.705972 25.264221 13.770247 24.774635C 14.834522 24.285053 16.086418 24.459755 16.976 25.222C 19.843058 27.667179 24.074902 27.621069 26.888 25.114L 28.521999 23.65C 29.31605 22.905807 30.450848 22.64999 31.487394 22.981514C 32.523941 23.31304 33.299664 24.179911 33.514473 25.246773C 33.729279 26.313635 33.34948 27.413164 32.522003 28.120001L 30.889999 29.582001C 27.390079 32.707947 22.521301 33.799149 18.021999 32.466L 18.021999 53.5C 18.021999 55.156075 16.680073 56.498898 15.024 56.5ZM 53 56.5C 51.343147 56.5 50 55.156857 50 53.5L 50 34.846001C 47.316757 36.575806 44.192497 37.497116 41 37.5C 39.343147 37.5 38 36.156853 38 34.5C 38 32.843147 39.343147 31.5 41 31.5C 44.422832 31.496561 47.634182 29.843605 49.625999 27.059999L 50.557999 25.756001C 51.31583 24.694012 52.673134 24.243555 53.915546 24.641712C 55.157963 25.039869 56.000614 26.195347 56 27.5L 56 53.5C 56 55.156857 54.656857 56.5 53 56.5ZM 38.764 36.5L 34 36.5L 36 56.5L 44 56.5L 44 37.225998M 30 36.5L 34 36.5M 26.667999 25.304001L 29 13.62L 39 15.616L 36.459999 28.341999L 32.954002 27.643999"></path></g></g></g><g id="g-root-grow_mdkv6m1q6yhhl-stroke" data-item-order="0" transform="translate(421, 339)"><g id="grow_mdkv6m1q6yhhl-stroke" fill="none" stroke-linecap="round" stroke-linejoin="round" stroke-miterlimit="4" stroke="#3cc583" stroke-width="2"><g><path d="M 36.982002 11C 36.456001 24.896 25.024 35 11 35M 33 15L 37 11L 41 15M 55.498001 15.903999C 55.822468 15.754614 56.201977 15.789643 56.493618 15.995895C 56.785259 16.202148 56.944736 16.5483 56.911999 16.903999C 56.598 20.74 55.147999 29.556 48.490002 29.556C 45.278793 29.496838 42.706539 26.876755 42.706539 23.665001C 42.706539 20.453247 45.278793 17.833164 48.490002 17.774C 50.927624 17.626041 53.310722 16.990141 55.498001 15.904ZM 50.953999 22.346001C 47.625534 23.639034 45.037548 26.335342 43.882 29.713999C 43.627464 30.449209 43.498329 31.221977 43.5 32L 43.5 57M 11 57L 57 57M 11.5 52C 11.5 52 15.5 52 15.5 57C 15.5 57 15.5 52 19.5 52M 29.5 53C 30.094276 51.276028 31.678587 50.087791 33.5 50M 28.5 43.928001C 29.671583 45.099457 29.67186 46.998817 28.500614 48.170612C 27.329369 49.342411 25.43001 49.343033 24.257999 48.172001C 23.229681 46.54351 22.459251 44.765858 21.974001 42.902C 21.860743 42.545803 21.955584 42.156174 22.219879 41.89188C 22.484177 41.627583 22.873802 41.532742 23.23 41.646C 25.093418 42.131569 26.870924 42.90126 28.500002 43.928001ZM 28.4 48.273998C 29.11972 49.383286 29.501858 50.677689 29.5 52L 29.5 57M 28.474001 34.466C 28.124281 34.520157 27.829229 34.755116 27.698153 35.083832C 27.567076 35.412552 27.619499 35.786064 27.836 36.066002C 29.836 38.615997 34.414001 43.466 38.739998 40.697998C 40.935352 39.299297 41.580902 36.38559 40.18177 34.19051C 38.782642 31.99543 35.868813 31.350447 33.674004 32.75C 32.069607 33.656647 30.302896 34.239662 28.474001 34.466003ZM 34.32 36.692001C 37.121758 36.133961 40.027008 36.840149 42.259998 38.622002C 42.74725 39.00901 43.166359 39.474762 43.5 40"></path></g></g></g><g id="g-root-tx_1_4hc0r21ud26tf-stroke" data-item-order="0" transform="translate(99, 483)"></g><g id="g-root-tx_2_140iitq1ud27f2-stroke" data-item-order="0" transform="translate(267, 483)"></g><g id="g-root-tx_3_8yeh1q1ud287d-stroke" data-item-order="0" transform="translate(435, 483)"></g><g id="g-root-tx_4_142dy321ud26fg-stroke" data-item-order="0" transform="translate(603, 483)"></g><g id="g-root-tx_establis_m7zk5q1ud27m1-stroke" data-item-order="0" transform="translate(51, 543)"></g><g id="g-root-tx_cultivat_1q6zkcu1ud2878-stroke" data-item-order="0" transform="translate(219, 543)"></g><g id="g-root-tx_fostergr_qp20ge1ud28zz-stroke" data-item-order="0" transform="translate(387, 543)"></g><g id="g-root-tx_develops_1uoohqm1ud26fe-stroke" data-item-order="0" transform="translate(555, 543)"></g><g id="g-root-tx_empowers_m9uzf21ud26mg-stroke" data-item-order="0" transform="translate(381, 603)"></g><g id="g-root-tx_equipswi_1q8uzm61ud277n-stroke" data-item-order="0" transform="translate(549, 603)"></g><g id="g-root-tx_ensuresp_8x5ivi1ud2616-stroke" data-item-order="0" transform="translate(51, 627)"></g><g id="g-root-tx_develops_1hbck3y1ud28zx-stroke" data-item-order="0" transform="translate(219, 627)"></g></g></g></svg>