<?xml version="1.0" encoding="utf-8" standalone="yes"?>
<!DOCTYPE svg PUBLIC "-//W3C//DTD SVG 1.1//EN" "http://www.w3.org/Graphics/SVG/1.1/DTD/svg11.dtd">
<svg width="842" height="656" viewBox="0 0 842 656" style="fill:none;stroke:none;fill-rule:evenodd;clip-rule:evenodd;stroke-linecap:round;stroke-linejoin:round;stroke-miterlimit:1.5;" version="1.1" xmlns="http://www.w3.org/2000/svg" xmlns:xlink="http://www.w3.org/1999/xlink"><style class="text-font-style fontImports" data-font-family="Roboto">@import url('https://fonts.googleapis.com/css2?family=Roboto:wght@400;700&amp;display=block');</style><g id="items" style="isolation: isolate"><g id="blend" style="mix-blend-mode: normal"><g id="g-root-4.g-4_fr_1uqje1b1wkji8c-fill" data-item-order="-450637" transform="translate(213.52700805664062, 136.9957275390625)"></g><g id="g-root-3.g-3_fr_1hf2vnz1wkjjta-fill" data-item-order="-450631" transform="translate(188, 323.9957275390625)"></g><g id="g-root-2.g-2_fr_1czvumn1wkjhfs-fill" data-item-order="-450625" transform="translate(375, 361.43170166015625)"></g><g id="g-root-1.g-1_fr_18k2ci71wkji82-fill" data-item-order="-450619" transform="translate(411.3690185546875, 158.9957275390625)"></g><g id="g-root-tx_holistic_v8lu4v1wkjjt0-fill" data-item-order="0" transform="translate(219, 38.9957275390625)"><g id="tx_holistic_v8lu4v1wkjjt0-fill" stroke="none" fill="#484848"><g><text style="font: bold 25px Roboto, sans-serif; white-space: pre;" font-weight="bold" font-size="25px" font-family="Roboto, sans-serif"><tspan x="17.67" y="42.71" dominant-baseline="ideographic">Holistic Child Growth Framework</tspan></text></g></g></g><g id="g-root-tx_achieves_1lz9yvj1wkjjf1-fill" data-item-order="0" transform="translate(15, 98.9957275390625)"><g id="tx_achieves_1lz9yvj1wkjjf1-fill" stroke="none" fill="#e55753"><g><text style="font: bold 20px Roboto, sans-serif; white-space: pre;" font-weight="bold" font-size="20px" font-family="Roboto, sans-serif"><tspan x="116.17" y="34" dominant-baseline="ideographic">Achieve </tspan><tspan x="61.19" y="58" dominant-baseline="ideographic">Specialization</tspan></text></g></g></g><g id="g-root-tx_establis_1d2e0gf1wkjitd-fill" data-item-order="0" transform="translate(627, 122.9957275390625)"><g id="tx_establis_1d2e0gf1wkjitd-fill" stroke="none" fill="#6e8658"><g><text style="font: bold 20px Roboto, sans-serif; white-space: pre;" font-weight="bold" font-size="20px" font-family="Roboto, sans-serif"><tspan x="12" y="34" dominant-baseline="ideographic">Establish Health </tspan><tspan x="12" y="58" dominant-baseline="ideographic">Foundations</tspan></text></g></g></g><g id="g-root-tx_buildski_18egc7j1wkkwem-fill" data-item-order="0" transform="translate(15, 158.9957275390625)"><g id="tx_buildski_18egc7j1wkkwem-fill" stroke="none" fill="#484848"><g><text style="font: 15px Roboto, sans-serif; white-space: pre;" font-size="15px" font-family="Roboto, sans-serif"><tspan x="101.22" y="30.71" dominant-baseline="ideographic">Build skills in </tspan><tspan x="34.57" y="48.71" dominant-baseline="ideographic">communication, STEM, </tspan><tspan x="36.76" y="66.71" dominant-baseline="ideographic">creativity, and financial </tspan><tspan x="74.09" y="84.71" dominant-baseline="ideographic">literacy for future </tspan><tspan x="119.15" y="102.71" dominant-baseline="ideographic">readiness.</tspan></text></g></g></g><g id="g-root-idea_1lua30v1wkw4ju-fill" data-item-order="0" transform="translate(255, 194.9957275390625)"></g><g id="g-root-stro_hxrsun1wkji85-fill" data-item-order="0" transform="translate(507, 194.9957275390625)"></g><g id="g-root-tx_focusonn_146r07j1wkjjm2-fill" data-item-order="0" transform="translate(627, 182.9957275390625)"><g id="tx_focusonn_146r07j1wkjjm2-fill" stroke="none" fill="#484848"><g><text style="font: 15px Roboto, sans-serif; white-space: pre;" font-size="15px" font-family="Roboto, sans-serif"><tspan x="12" y="27.71" dominant-baseline="ideographic">Focus on nutrition, sleep, </tspan><tspan x="12" y="45.71" dominant-baseline="ideographic">exercise, and routines to </tspan><tspan x="12" y="63.71" dominant-baseline="ideographic">support physical well-</tspan><tspan x="12" y="81.71" dominant-baseline="ideographic">being.</tspan></text></g></g></g><g id="g-root-tx_cultivat_dkggjz1wkjjm3-fill" data-item-order="0" transform="translate(15, 448.9957275390625)"><g id="tx_cultivat_dkggjz1wkjjm3-fill" stroke="none" fill="#de8431"><g><text style="font: bold 20px Roboto, sans-serif; white-space: pre;" font-weight="bold" font-size="20px" font-family="Roboto, sans-serif"><tspan x="38.53" y="34" dominant-baseline="ideographic">Cultivate Growth </tspan><tspan x="129.59" y="58" dominant-baseline="ideographic">Habits</tspan></text></g></g></g><g id="g-root-1_ddl5fz1wkw5qi-fill" data-item-order="0" transform="translate(255, 446.9957275390625)"></g><g id="g-root-2_mb3emn1wkuq6b-fill" data-item-order="0" transform="translate(507, 446.9957275390625)"></g><g id="g-root-tx_developr_93e09b1wkji87-fill" data-item-order="0" transform="translate(627, 448.9957275390625)"><g id="tx_developr_93e09b1wkji87-fill" stroke="none" fill="#73a1b2"><g><text style="font: bold 20px Roboto, sans-serif; white-space: pre;" font-weight="bold" font-size="20px" font-family="Roboto, sans-serif"><tspan x="12" y="34" dominant-baseline="ideographic">Develop </tspan><tspan x="12" y="58" dominant-baseline="ideographic">Responsible Habits</tspan></text></g></g></g><g id="g-root-tx_enhancef_9mf9r1wkji18-fill" data-item-order="0" transform="translate(15, 508.99566650390625)"><g id="tx_enhancef_9mf9r1wkji18-fill" stroke="none" fill="#484848"><g><text style="font: 15px Roboto, sans-serif; white-space: pre;" font-size="15px" font-family="Roboto, sans-serif"><tspan x="23.69" y="27.71" dominant-baseline="ideographic">Enhance curiosity, focus, </tspan><tspan x="19.04" y="45.71" dominant-baseline="ideographic">emotional regulation, and </tspan><tspan x="16.21" y="63.71" dominant-baseline="ideographic">reflection for self-directed </tspan><tspan x="26.55" y="81.71" dominant-baseline="ideographic">learning and adaptation.</tspan></text></g></g></g><g id="g-root-tx_encourag_1ut1jv31wkjjm0-fill" data-item-order="0" transform="translate(627, 508.99566650390625)"><g id="tx_encourag_1ut1jv31wkjjm0-fill" stroke="none" fill="#484848"><g><text style="font: 15px Roboto, sans-serif; white-space: pre;" font-size="15px" font-family="Roboto, sans-serif"><tspan x="12" y="30.71" dominant-baseline="ideographic">Encourage self-care, </tspan><tspan x="12" y="48.71" dominant-baseline="ideographic">organization, productivity </tspan><tspan x="12" y="66.71" dominant-baseline="ideographic">and respect to translate </tspan><tspan x="12" y="84.71" dominant-baseline="ideographic">health into responsible </tspan><tspan x="12" y="102.71" dominant-baseline="ideographic">actions.</tspan></text></g></g></g><g id="g-root-4.g-4_fr_1uqje1b1wkji8c-stroke" data-item-order="-450637" transform="translate(213.52700805664062, 136.9957275390625)"><g id="4.g-4_fr_1uqje1b1wkji8c-stroke" fill="none" stroke-linecap="round" stroke-linejoin="round" stroke-miterlimit="4" stroke="#ba5de5" stroke-width="2"><g><path d="M 15.470703 98C 15.470705 134.450795 45.019912 164.000002 81.470705 164.000002C 117.921499 164.000002 147.470705 134.450795 147.470705 98.000002C 147.470705 61.549208 117.921499 32.000002 81.470705 32.000002C 45.019912 32.000002 15.470705 61.549208 15.470705 98.000002"></path></g></g><g id="4.g-4_fr_1uqje1b1wkji8c-stroke" fill="none" stroke-linecap="round" stroke-linejoin="round" stroke-miterlimit="4" stroke="#ba5de5" stroke-width="2"><g><path d="M 233.4716 51L 189.4716 10L 189.4716 35.9052C 168.4028 37.2726 147.672 42.09 128.1139 50.1913C 127.8484 50.3012 127.5833 50.4117 127.3185 50.5228C 136.7686 59.6504 143.5011 71.5735 146.1838 84.9601C 160.0711 79.5626 174.6533 76.2149 189.4716 75.0081L 189.4716 92L 233.4716 51ZM 63.3232 161.4734C 50.2822 157.7517 38.8904 150.1196 30.4968 139.9261C 28.0176 144.7257 25.737 149.635 23.663 154.6421C 16.5117 171.9069 11.9193 195.0856 10 213.6038L 25.4717 197L 48.4293 221.6374C 49.6779 205.4763 53.4723 184.588 59.6943 169.5668C 60.8274 166.8314 62.0376 164.1326 63.3232 161.4734Z"></path></g></g></g><g id="g-root-3.g-3_fr_1hf2vnz1wkjjta-stroke" data-item-order="-450631" transform="translate(188, 323.9957275390625)"><g id="3.g-3_fr_1hf2vnz1wkjjta-stroke" fill="none" stroke-linecap="round" stroke-linejoin="round" stroke-miterlimit="4" stroke="#e0cb15" stroke-width="2"><g><path d="M 41 163C 41.000002 199.450795 70.549208 229.000002 107.000002 229.000002C 143.450795 229.000002 173.000002 199.450795 173.000002 163.000002C 173.000002 126.549208 143.450795 97.000002 107.000002 97.000002C 70.549208 97.000002 41.000002 126.549208 41.000002 163.000002"></path></g></g><g id="3.g-3_fr_1hf2vnz1wkjjta-stroke" fill="none" stroke-linecap="round" stroke-linejoin="round" stroke-miterlimit="4" stroke="#e0cb15" stroke-width="2"><g><path d="M 51 10L 92 54L 74.0081 54C 75.3064 69.9414 79.0824 85.6095 85.2225 100.4333C 85.252 100.5043 85.2815 100.5754 85.3111 100.6465C 72.3183 105.1653 61.1728 113.6305 53.3098 124.6069C 51.8579 121.5639 50.4844 118.4799 49.1912 115.3579C 41.09 95.7998 36.2726 75.0688 34.9052 54L 10 54L 51 10ZM 145.835 216.3709C 148.4092 217.5731 151.0122 218.7194 153.6421 219.8088C 171.626 227.2579 195.6015 231.9306 214.9194 233.6976L 197 217L 220.5698 195.0372C 204.7751 193.8099 184.4522 190.1509 169.5314 184.1705C 165.1184 197.2096 156.7415 208.4212 145.835 216.3709Z"></path></g></g></g><g id="g-root-2.g-2_fr_1czvumn1wkjhfs-stroke" data-item-order="-450625" transform="translate(375, 361.43170166015625)"><g id="2.g-2_fr_1czvumn1wkjhfs-stroke" fill="none" stroke-linecap="round" stroke-linejoin="round" stroke-miterlimit="4" stroke="#73a1b2" stroke-width="2"><g><path d="M 106 125.563629C 106.000002 162.014425 135.549208 191.563631 172.000002 191.563631C 208.450795 191.563631 238.000002 162.014425 238.000002 125.563631C 238.000002 89.112838 208.450795 59.563631 172.000002 59.563631C 135.549208 59.563631 106.000002 89.112838 106.000002 125.563631"></path></g></g><g id="2.g-2_fr_1czvumn1wkjhfs-stroke" fill="none" stroke-linecap="round" stroke-linejoin="round" stroke-miterlimit="4" stroke="#73a1b2" stroke-width="2"><g><path d="M 217 34.5636L 232.5846 17.8386C 230.7367 36.7442 226.1043 60.3084 218.8088 77.9214C 218.7001 78.1837 218.5909 78.4457 218.4812 78.7074C 209.1867 69.4869 197.1638 63.0126 183.7306 60.6029C 189.5021 45.5315 192.9979 25.6372 194.1112 10L 217 34.5636ZM 108.167 142.4008C 105.301 143.8027 102.3885 145.117 99.4333 146.3411C 84.9196 152.3528 69.5965 156.0983 54 157.4708L 54 138.5636L 10 179.5636L 54 220.5636L 54 196.5909C 74.7246 195.1377 95.1093 190.3454 114.3579 182.3724C 119.3246 180.3151 124.1951 178.0546 128.9576 175.5986C 118.9894 167.0157 111.6142 155.5047 108.167 142.4008Z"></path></g></g></g><g id="g-root-1.g-1_fr_18k2ci71wkji82-stroke" data-item-order="-450619" transform="translate(411.3690185546875, 158.9957275390625)"><g id="1.g-1_fr_18k2ci71wkji82-stroke" fill="none" stroke-linecap="round" stroke-linejoin="round" stroke-miterlimit="4" stroke="#6e8658" stroke-width="2"><g><path d="M 69.630859 76C 69.630861 112.450795 99.180068 142.000002 135.630861 142.000002C 172.081655 142.000002 201.630861 112.450795 201.630861 76.000002C 201.630861 39.549208 172.081655 10.000002 135.630861 10.000002C 99.180068 10.000002 69.630861 39.549208 69.630861 76.000002"></path></g></g><g id="1.g-1_fr_18k2ci71wkji82-stroke" fill="none" stroke-linecap="round" stroke-linejoin="round" stroke-miterlimit="4" stroke="#6e8658" stroke-width="2"><g><path d="M 179.3046 125.485066C 169.5765 134.077166 157.2955 139.845266 143.7447 141.506266C 144.6752 143.505266 145.5636 145.525866 146.409 147.566866C 152.4208 162.080466 156.1662 177.403566 157.5387 193.000066L 139.6316 193.000066L 180.6316 237.000066L 221.6316 193.000066L 196.6589 193.000066C 195.2057 172.275366 190.4134 151.890766 182.4404 132.642066C 181.4426 130.233366 180.3971 127.847166 179.3046 125.485066ZM 86.4815 31.950566C 83.6843 30.630966 80.8529 29.377366 77.9895 28.191266C 61.1015 21.196066 38.3392 16.649266 20.2399 14.657766L 35.6316 28.999966L 10 52.883966C 26.5036 54.051566 47.7357 57.872966 63.0648 64.222566C 65.4683 65.218066 67.8436 66.273266 70.1885 67.386766C 71.9516 53.858966 77.8111 41.618466 86.4815 31.950566Z"></path></g></g></g><g id="g-root-tx_holistic_v8lu4v1wkjjt0-stroke" data-item-order="0" transform="translate(219, 38.9957275390625)"></g><g id="g-root-tx_achieves_1lz9yvj1wkjjf1-stroke" data-item-order="0" transform="translate(15, 98.9957275390625)"></g><g id="g-root-tx_establis_1d2e0gf1wkjitd-stroke" data-item-order="0" transform="translate(627, 122.9957275390625)"></g><g id="g-root-tx_buildski_18egc7j1wkkwem-stroke" data-item-order="0" transform="translate(15, 158.9957275390625)"></g><g id="g-root-idea_1lua30v1wkw4ju-stroke" data-item-order="0" transform="translate(255, 194.9957275390625)"><g id="idea_1lua30v1wkw4ju-stroke" fill="none" stroke-linecap="round" stroke-linejoin="round" stroke-miterlimit="4" stroke="#ba5de5" stroke-width="2"><g><path d="M 21.217501 48.125L 15.935 48.125C 14.262547 48.122547 12.824158 49.308517 12.507798 50.950779C 12.191438 52.59304 13.086318 54.228485 14.64 54.847504L 20 57C 21.553242 57.618847 22.448114 59.253586 22.132433 60.895496C 21.816751 62.537407 20.379482 63.723755 18.7075 63.722504L 13.4225 63.7225M 17.32 66.3125L 17.32 63.715M 17.32 48.125L 17.32 45.525002M 37.1325 11.25L 18.945 18.4725L 37.1325 24.889999L 55.32 18.4725L 37.1325 11.25ZM 18.945 18.4725L 18.945 27.987501M 26.75 21.2225L 26.75 29.4175C 26.750088 30.214478 27.235155 30.931189 27.975 31.227501L 36.4175 34.345001C 36.882278 34.529949 37.400223 34.529949 37.864998 34.345001L 46.300003 31.227501C 47.039845 30.931189 47.524914 30.214478 47.525002 29.4175L 47.525002 21.2225M 67.550003 49.272499C 67.546936 44.917004 64.33139 41.2313 60.016552 40.637558C 55.70171 40.043823 51.610184 42.724041 50.43084 46.916836C 49.251499 51.109627 51.34584 55.5298 55.337502 57.272499L 55.337502 61.5L 62.317501 61.5L 62.317501 57.25C 65.490669 55.865356 67.544144 52.734612 67.549995 49.272495ZM 55.337502 65.797501L 62.317501 65.797501M 58.827499 65.797501L 58.827499 68.75M 47.135002 65.517502C 41.36718 68.457901 34.640854 68.884918 28.547501 66.697502M 54.640003 29.960001C 55.745728 31.320122 56.695023 32.800251 57.470001 34.372501M 13.715 39.337498C 14.176767 37.369701 14.892786 35.470406 15.845 33.6875"></path></g></g></g><g id="g-root-stro_hxrsun1wkji85-stroke" data-item-order="0" transform="translate(507, 194.9957275390625)"><g id="stro_hxrsun1wkji85-stroke" fill="none" stroke-linecap="round" stroke-linejoin="round" stroke-miterlimit="4" stroke="#6e8658" stroke-width="2"><g><path d="M 31.816776 44.41325L 15.56235 29.690125C 6.728425 20.856201 19.714275 3.89505 31.816776 17.617075C 43.91925 3.89505 56.846252 20.915075 48.071251 29.690125L 31.816776 44.41325ZM 21.45355 27.4289L 26.485401 27.4289L 29.504524 23.1488L 33.529999 30.638977L 36.549 26.358875L 42.154499 26.358875M 40.32375 59.071751C 40.32375 59.071751 42.48925 53.657753 48.986 53.657753C 55.482502 53.657753 57.648003 57.989002 57.648003 57.989002L 53.316998 44.99575L 50.400002 44.99575C 49.082253 44.99575 48.069748 43.828499 48.256248 42.523998L 48.45475 41.135002C 48.759502 39.001251 50.586746 37.4165 52.742252 37.4165L 58.296753 37.4165C 59.207249 37.4165 60.020752 37.986 60.331749 38.842003L 67.726753 59.17775C 68.197495 60.472496 68.024246 61.914001 67.259995 63.060497L 65.257751 66.064003C 64.562248 67.107246 63.391499 67.733749 62.137497 67.733749L 38.158249 67.733749"></path></g></g></g><g id="g-root-tx_focusonn_146r07j1wkjjm2-stroke" data-item-order="0" transform="translate(627, 182.9957275390625)"></g><g id="g-root-tx_cultivat_dkggjz1wkjjm3-stroke" data-item-order="0" transform="translate(15, 448.9957275390625)"></g><g id="g-root-1_ddl5fz1wkw5qi-stroke" data-item-order="0" transform="translate(255, 446.9957275390625)"><g id="1_ddl5fz1wkw5qi-stroke" fill="none" stroke-linecap="round" stroke-linejoin="round" stroke-miterlimit="4" stroke="#e0cb15" stroke-width="2"><g><path d="M 21.6884 68.125L 21.6884 52.462502C 18.233974 49.262249 15.82485 45.094749 14.7756 40.50425C 13.726376 35.91375 14.085775 31.11335 15.806925 26.7302C 17.528049 22.34705 20.530899 18.584751 24.423349 15.934626C 28.3158 13.2845 32.916924 11.86971 37.625999 11.875015C 55.473499 11.875015 59.326 26.570024 65.688499 43.074997C 65.797501 43.359253 65.835747 43.665501 65.800003 43.967751C 65.764252 44.27 65.655754 44.558998 65.483498 44.809998C 65.311249 45.060749 65.08075 45.265999 64.811501 45.408001C 64.542252 45.549999 64.242752 45.6245 63.938499 45.625L 59.188499 45.625L 59.188499 53.125C 59.188499 55.11425 58.398251 57.021751 56.991749 58.428249C 55.585251 59.834751 53.677502 60.625 51.688499 60.625L 47.938499 60.625L 47.938499 68.125M 37.69025 44.792248C 36.076752 43.487 34.761623 41.85125 33.8335 39.994999C 32.905376 38.138748 32.385727 36.105 32.309574 34.031151C 32.360527 32.161125 32.780678 30.319624 33.545876 28.612576C 34.31105 26.9055 35.40625 25.36655 36.76825 24.084249C 37.014748 23.842724 37.346001 23.707426 37.690998 23.707426C 38.035999 23.707426 38.3675 23.842724 38.61375 24.084249C 39.97525 25.366951 41.069752 26.906025 41.834751 28.613026C 42.599499 30.320024 43.019501 32.161324 43.070751 34.031151C 42.994499 36.105 42.474998 38.138748 41.546749 39.994999C 40.618752 41.85125 39.303501 43.487 37.69025 44.792248L 37.69025 44.792248ZM 42.928001 32.147873C 45.497501 30.400249 48.537251 29.473974 51.644501 29.491674C 51.999001 29.492151 52.338501 29.6327 52.5895 29.8827C 52.8405 30.132698 52.982502 30.4718 52.984501 30.82605C 53.037498 32.691124 52.722 34.548325 52.056 36.291252C 51.389999 38.034 50.386501 39.628502 49.103249 40.98275C 47.582748 42.395252 45.777248 43.465752 43.808502 44.122002C 41.839748 44.778 39.753002 45.004749 37.689251 44.786751M 32.454575 32.167698C 29.8708 30.3916 26.801451 29.457001 23.6663 29.491751C 23.311575 29.491751 22.971226 29.63205 22.719576 29.882025C 22.467901 30.132025 22.325325 30.471399 22.32295 30.826126C 22.2684 32.691723 22.582701 34.549725 23.247799 36.293499C 23.912899 38.037498 24.915726 39.632751 26.19875 40.988251C 27.7334 42.403 29.55225 43.474251 31.533825 44.130249C 33.5154 44.786251 35.61425 45.012001 37.689751 44.792248"></path></g></g></g><g id="g-root-2_mb3emn1wkuq6b-stroke" data-item-order="0" transform="translate(507, 446.9957275390625)"><g id="2_mb3emn1wkuq6b-stroke" fill="none" stroke-linecap="round" stroke-linejoin="round" stroke-miterlimit="4" stroke="#73a1b2" stroke-width="2"><g><path d="M 34.5 27.375C 34.22385 27.375 34 27.15115 34 26.875025C 34 26.598875 34.22385 26.375 34.5 26.375M 34.500076 27.374975C 34.776226 27.374975 35 27.151125 35 26.874975C 35 26.59885 34.776226 26.374975 34.500076 26.374975M 45.499748 27.374975C 45.223751 27.374975 44.999748 27.151125 44.999748 26.874975C 44.999748 26.59885 45.223751 26.374975 45.499748 26.374975M 45.499748 27.374975C 45.776001 27.374975 45.999752 27.151125 45.999752 26.874975C 45.999752 26.59885 45.776001 26.374975 45.499748 26.374975M 44.5 33.625C 42 36.125 38 36.125 35.75 33.625M 15.89095 30.120174L 12.220215 20.625C 11.220215 18.125 12.470193 15.625 14.9702 14.625C 17.4702 13.625 19.970224 14.875 20.970226 17.375L 24.902149 27.589575M 64.069504 30.218699L 67.775002 20.625C 68.775002 18.125 67.525002 15.625 65.025002 14.625C 62.525002 13.625 60.025002 14.875 59.025002 17.375L 54.959751 27.6425M 48.5 14.625C 46.75 18.375 43 21.125 38.75 21.125C 35 21.125 31.749975 19.125 29.749975 16.375M 40 41.875C 48.284248 41.875 55 35.159248 55 26.875C 55 18.590725 48.284248 11.875 40 11.875C 31.715725 11.875 25 18.590725 25 26.875C 25 35.159248 31.715725 41.875 40 41.875ZM 10 10M 19.375 68.125L 14.375 62.125C 12.875 60.125 11.875 57.625 11.875 55.125L 11.875 43.125C 11.875 41.125 13.625 39.375 15.625 39.375C 17.625 39.375 19.375 41.125 19.375 43.125L 19.375 51.875M 30.75005 68.125L 30.75005 60.625C 30.75005 58.375 30 56.125 28.75 54.375L 26 50.125C 25 48.375 22.75 47.875 21 49.125C 19.5 50.125 19 52.125 19.75 53.625L 23.25005 59.125M 10 10M 60.625 68.125L 65.625 62.125C 67.125 60.125 68.125 57.625 68.125 55.125L 68.125 43.125C 68.125 41.125 66.375 39.375 64.375 39.375C 62.375 39.375 60.625 41.125 60.625 43.125L 60.625 51.875M 49.25 68.125L 49.25 60.625C 49.25 58.375 50 56.125 51.25 54.375L 54 50.125C 55 48.375 57.25 47.875 59 49.125C 60.5 50.125 61 52.125 60.25 53.625L 56.75 59.125"></path></g></g></g><g id="g-root-tx_developr_93e09b1wkji87-stroke" data-item-order="0" transform="translate(627, 448.9957275390625)"></g><g id="g-root-tx_enhancef_9mf9r1wkji18-stroke" data-item-order="0" transform="translate(15, 508.99566650390625)"></g><g id="g-root-tx_encourag_1ut1jv31wkjjm0-stroke" data-item-order="0" transform="translate(627, 508.99566650390625)"></g></g></g></svg>